<svg width="48" height="48" viewBox="0 0 48 48" fill="none" xmlns="http://www.w3.org/2000/svg">
<g clip-path="url(#clip0_515_42)">
<path d="M35.9446 14.9402C35.281 14.3319 34.2304 14.3872 33.6221 15.1061C33.0138 15.7697 33.0691 16.8204 33.788 17.4287C35.834 19.1982 36.9953 21.7973 36.9953 24.507C36.9953 27.2167 35.834 29.7605 33.788 31.5853C33.1244 32.1936 33.0138 33.2443 33.6221 33.9079C33.9539 34.295 34.3963 34.4609 34.8386 34.4609C35.2257 34.4609 35.6128 34.3503 35.9446 34.0185C38.6543 31.5853 40.258 28.1015 40.258 24.507C40.258 20.9125 38.7096 17.3181 35.9446 14.9402Z" fill="black"/>
<path d="M42.0829 11.0138C41.4193 10.4055 40.3687 10.4608 39.7604 11.1244C39.1521 11.788 39.2074 12.8387 39.871 13.447C42.9677 16.2672 44.7373 20.3041 44.7373 24.4516C44.7373 28.599 42.9677 32.6359 39.871 35.4562C39.2074 36.0645 39.1521 37.1152 39.7604 37.7787C40.0922 38.1105 40.5345 38.3317 40.9769 38.3317C41.364 38.3317 41.8064 38.1658 42.0829 37.8894C45.8433 34.4608 48 29.5391 48 24.4516C48 19.364 45.8433 14.4423 42.0829 11.0138Z" fill="black"/>
<path d="M29.3641 5.37327C28.4793 4.87558 27.4286 4.87558 26.5991 5.37327L11.1705 14.4424H4.42396C1.99078 14.4424 0 16.4332 0 18.8664V30.0922C0 32.5253 1.99078 34.5161 4.42396 34.5161H11.1705L26.5438 43.53C26.9862 43.8065 27.4839 43.9171 27.9263 43.9171C28.424 43.9171 28.8664 43.8065 29.3088 43.53C30.1935 43.0323 30.6912 42.0922 30.6912 41.1521V7.75115C30.7465 6.75576 30.1935 5.87097 29.3641 5.37327ZM3.31797 30.0369V18.8664C3.31797 18.2581 3.81567 17.7604 4.42396 17.7604H9.95392V31.1982H4.42396C3.81567 31.1429 3.31797 30.7005 3.31797 30.0369ZM27.4286 40.1567L13.3272 31.8618V16.9862L27.4286 8.69124V40.1567Z" fill="black"/>
</g>
<defs>
<clipPath id="clip0_515_42">
<rect width="48" height="48" fill="white"/>
</clipPath>
</defs>
</svg>
