<svg width="48" height="48" viewBox="0 0 48 48" fill="none" xmlns="http://www.w3.org/2000/svg">
<path d="M9.81563 8C9.34912 8 8.88985 8.18523 8.53391 8.54117C7.82203 9.25305 7.82203 10.3927 8.53391 11.1046L21.4366 24.0073L8.53391 36.9098C7.82203 37.6218 7.82203 38.7614 8.53391 39.4734C9.2458 40.1852 10.3855 40.1852 11.0974 39.4734L24 26.5707L36.9026 39.4734C37.6145 40.1852 38.7542 40.1852 39.4661 39.4734C40.178 38.7614 40.178 37.6218 39.4661 36.9098L26.5634 24.0073L39.4661 11.1046C40.178 10.3927 40.178 9.25305 39.4661 8.54117C39.1101 8.18523 38.6508 8 38.1844 8C37.7179 8 37.2586 8.18523 36.9026 8.54117L24 21.4438L11.0974 8.54117C10.7414 8.18523 10.2821 8 9.81563 8Z" fill="black"/>
</svg>
