<svg width="48" height="48" viewBox="0 0 48 48" fill="none" xmlns="http://www.w3.org/2000/svg">
<path d="M10.019 14.3354V11.5506L20.2136 21.7453C20.6313 22.163 21.3275 22.163 21.6756 21.7453C22.0237 21.3275 22.0934 20.6313 21.6756 20.2832L11.5506 10.0886H14.405C14.962 10.0886 15.4493 9.60126 15.4493 9.0443C15.4493 8.48734 14.962 8 14.405 8H8.90506C8.83544 8 8.76582 8.06962 8.6962 8.06962C8.62658 8.06962 8.55696 8.06962 8.48734 8.06962H8.41772C8.27848 8.13924 8.13924 8.27848 8.06962 8.41772V8.48734C8.06962 8.55696 8 8.62658 8 8.6962V8.76582V8.83544C8 8.83544 8 8.90506 8 8.97468V14.3354C8 14.8924 8.41772 15.3797 9.0443 15.3797C9.60126 15.3797 10.019 14.8924 10.019 14.3354Z" fill="white"/>
<path d="M34.5949 10.019H37.3797L27.2547 20.2136C26.837 20.6313 26.837 21.3275 27.2547 21.6756C27.6724 22.0237 28.3686 22.0934 28.7167 21.6756L38.9114 11.5506V14.405C38.9114 14.962 39.3987 15.4493 39.9557 15.4493C40.5126 15.4493 41 14.962 41 14.405V9.0443C41 8.97468 41 8.97468 41 8.90506C41 8.83544 40.9303 8.76582 40.9303 8.6962C40.9303 8.62658 40.8607 8.55696 40.8607 8.48734V8.41772C40.7911 8.27848 40.6519 8.13924 40.5126 8.06962H40.443C40.3734 8.06962 40.3038 8 40.2341 8H40.1645H40.0949H34.5949C34.038 8 33.5506 8.41772 33.5506 9.0443C33.5506 9.67088 34.038 10.0886 34.5949 10.019Z" fill="white"/>
<path d="M8.76578 40.9303C8.69616 40.9303 8.62654 40.8607 8.55692 40.8607H8.4873C8.34806 40.7911 8.20882 40.6519 8.1392 40.5126V40.443C8.1392 40.3734 8.06958 40.3038 8.06958 40.2341V40.1645V40.0949C8.06958 40.0949 8.06958 40.0253 8.06958 39.9557V34.5949C8.06958 34.038 8.55692 33.5506 9.11388 33.5506C9.67084 33.6202 10.0886 34.038 10.0886 34.5949V37.3797L19.3913 27.2547C19.809 26.837 20.5052 26.837 20.8533 27.2547C21.2014 27.6724 21.2711 28.3686 20.8533 28.7167L11.5506 38.9114H14.405C14.962 38.9114 15.4493 39.3987 15.4493 39.9557C15.4493 40.5126 14.962 41 14.405 41H8.97464" fill="white"/>
<path d="M34.6645 38.9112H37.4493L27.2547 27.8943C26.837 27.4766 26.837 26.7804 27.2547 26.4323C27.6724 26.0842 28.3686 26.0146 28.7167 26.4323L38.9114 37.4492V34.5948C38.9114 34.0378 39.3987 33.5505 39.9557 33.5505C40.5126 33.5505 41 34.0378 41 34.5948V39.9555C41 40.0252 41 40.0252 41 40.0948C41 40.1644 40.9303 40.234 40.9303 40.3036C40.9303 40.3733 40.8607 40.4429 40.8607 40.5125V40.5821C40.7911 40.7214 40.6519 40.8606 40.5126 40.9302H40.443C40.3734 40.9302 40.3038 40.9998 40.2341 40.9998H40.1645H40.0949H34.5949C34.038 40.9998 33.5506 40.5821 33.5506 39.9555C33.6202 39.3986 34.1076 38.9809 34.6645 38.9112Z" fill="white"/>
</svg>
