<svg width="48" height="48" viewBox="0 0 48 48" fill="none" xmlns="http://www.w3.org/2000/svg">
<path d="M8.26371 13.1034V9.981L16.6941 18.4114C17.1624 18.8797 17.943 18.8797 18.3333 18.4114C18.7236 17.943 18.8017 17.1624 18.3333 16.7721L9.981 8.34177H13.1814C13.8059 8.34177 14.3523 7.79535 14.3523 7.17088C14.3523 6.54641 13.8059 6 13.1814 6H7.01477C6.93671 6 6.85865 6.07806 6.78059 6.07806C6.70253 6.07806 6.62447 6.07806 6.54641 6.07806H6.46835C6.31224 6.15612 6.15612 6.31224 6.07806 6.46835V6.54641C6.07806 6.62447 6 6.70253 6 6.78059V6.85865V6.93671C6 6.93671 6 7.01477 6 7.09282V13.1034C6 13.7278 6.46835 14.2742 7.17088 14.2742C7.79535 14.2742 8.26371 13.7278 8.26371 13.1034Z" fill="black"/>
<path d="M35.8185 8.26371H38.9409L30.5886 16.6941C30.1202 17.1624 30.1202 17.943 30.5886 18.3333C31.0569 18.7236 31.8375 18.8017 32.2278 18.3333L40.6582 9.981V13.1814C40.6582 13.8059 41.2046 14.3523 41.829 14.3523C42.4535 14.3523 42.9999 13.8059 42.9999 13.1814V7.17088C42.9999 7.09282 42.9999 7.09282 42.9999 7.01477C42.9999 6.93671 42.9219 6.85865 42.9219 6.78059C42.9219 6.70253 42.8438 6.62447 42.8438 6.54641V6.46835C42.7658 6.31224 42.6096 6.15612 42.4535 6.07806H42.3755C42.2974 6.07806 42.2193 6 42.1413 6H42.0632H41.9852H35.8185C35.194 6 34.6476 6.46835 34.6476 7.17088C34.6476 7.87341 35.194 8.34177 35.8185 8.26371Z" fill="black"/>
<path d="M6.85865 42.9219C6.78059 42.9219 6.70254 42.8438 6.62448 42.8438H6.54642C6.3903 42.7658 6.23418 42.6096 6.15612 42.4535V42.3755C6.15612 42.2974 6.07806 42.2193 6.07806 42.1413V42.0632V41.9852C6.07806 41.9852 6.07806 41.9071 6.07806 41.829V35.8185C6.07806 35.194 6.62448 34.6476 7.24895 34.6476C7.87342 34.7257 8.34177 35.194 8.34177 35.8185V38.9409L16.7721 30.5886C17.2405 30.1202 18.0211 30.1202 18.4114 30.5886C18.8017 31.0569 18.8797 31.8375 18.4114 32.2278L9.98101 40.6582H13.1814C13.8059 40.6582 14.3523 41.2046 14.3523 41.829C14.3523 42.4535 13.8059 42.9999 13.1814 42.9999H7.09283" fill="black"/>
<path d="M35.8966 40.6582H39.0189L30.5886 32.3059C30.1202 31.8375 30.1202 31.0569 30.5886 30.6666C31.0569 30.2764 31.8375 30.1983 32.2278 30.6666L40.6582 39.0189V35.8185C40.6582 35.1941 41.2046 34.6477 41.829 34.6477C42.4535 34.6477 42.9999 35.1941 42.9999 35.8185V41.8291C42.9999 41.9071 42.9999 41.9071 42.9999 41.9852C42.9999 42.0632 42.9219 42.1413 42.9219 42.2194C42.9219 42.2974 42.8438 42.3755 42.8438 42.4535V42.5316C42.7658 42.6877 42.6096 42.8438 42.4535 42.9219H42.3755C42.2974 42.9219 42.2193 43 42.1413 43H42.0632H41.9852H35.8185C35.194 43 34.6476 42.5316 34.6476 41.8291C34.7257 41.2046 35.2721 40.7362 35.8966 40.6582Z" fill="black"/>
</svg>
