<svg width="48" height="48" viewBox="0 0 48 48" fill="none" xmlns="http://www.w3.org/2000/svg">
<path d="M29.3053 7.33439C28.5127 6.88854 27.5714 6.88854 26.8283 7.33439L13.0069 15.4588H6.96313C4.78341 15.4588 3 17.2422 3 19.4219V29.4784C3 31.6581 4.78341 33.4415 6.96313 33.4415H13.0069L26.7788 41.5164C27.1751 41.7641 27.621 41.8632 28.0173 41.8632C28.4631 41.8632 28.8594 41.7641 29.2558 41.5164C30.0484 41.0706 30.4942 40.2284 30.4942 39.3862V9.46457C30.5438 8.57287 30.0484 7.78024 29.3053 7.33439ZM5.97235 29.4289V19.4219C5.97235 18.877 6.4182 18.4312 6.96313 18.4312H11.9171V30.4692H6.96313C6.4182 30.4196 5.97235 30.0233 5.97235 29.4289ZM27.5714 38.4945L14.9389 31.0637V17.7376L27.5714 10.3067V38.4945Z" fill="white"/>
<path d="M40.9024 24.4693L45.588 19.7839C46.0929 19.2782 46.1404 18.505 45.6934 18.0573C45.2461 17.6099 44.4718 17.6578 43.9668 18.1628L39.2809 22.8474L34.5961 18.162C34.0904 17.6571 33.3168 17.6096 32.8694 18.0565C32.4232 18.5039 32.4699 19.2782 32.9749 19.7832L37.6604 24.4686L32.9745 29.1536C32.4696 29.6585 32.4221 30.4328 32.8691 30.881C33.3172 31.3272 34.0907 31.2804 34.5957 30.7755L39.2809 26.0901L43.9664 30.7755C44.4714 31.2804 45.2453 31.3279 45.6927 30.881C46.1397 30.4325 46.0922 29.6593 45.5872 29.1543L40.9024 24.4693Z" fill="white"/>
</svg>
