<svg width="48" height="48" viewBox="0 0 48 48" fill="none" xmlns="http://www.w3.org/2000/svg">
<path d="M29.3641 5.37327C28.4793 4.87558 27.4286 4.87558 26.5991 5.37327L11.1705 14.4424H4.42396C1.99078 14.4424 0 16.4332 0 18.8664V30.0922C0 32.5253 1.99078 34.5161 4.42396 34.5161H11.1705L26.5438 43.53C26.9862 43.8065 27.4839 43.9171 27.9263 43.9171C28.424 43.9171 28.8664 43.8065 29.3088 43.53C30.1935 43.0323 30.6912 42.0922 30.6912 41.1521V7.75115C30.7465 6.75576 30.1935 5.87097 29.3641 5.37327ZM3.31797 30.0369V18.8664C3.31797 18.2581 3.81567 17.7604 4.42396 17.7604H9.95392V31.1982H4.42396C3.81567 31.1429 3.31797 30.7005 3.31797 30.0369ZM27.4286 40.1567L13.3272 31.8618V16.9862L27.4286 8.69124V40.1567Z" fill="black"/>
<path d="M42.3097 24.5006L47.54 19.2704C48.1038 18.7059 48.1568 17.8428 47.6578 17.343C47.1584 16.8436 46.2941 16.8971 45.7303 17.4608L40.4996 22.6901L35.2701 17.4599C34.7055 16.8963 33.842 16.8432 33.3426 17.3422C32.8445 17.8416 32.8967 18.7059 33.4604 19.2696L38.6907 24.4998L33.46 29.7296C32.8962 30.2933 32.8432 31.1576 33.3422 31.6578C33.8424 32.1559 34.706 32.1037 35.2697 31.5401L40.4996 26.3099L45.7299 31.5401C46.2936 32.1037 47.1576 32.1568 47.657 31.6578C48.1559 31.1572 48.1029 30.2941 47.5392 29.7304L42.3097 24.5006Z" fill="black"/>
</svg>
