<svg width="48" height="48" viewBox="0 0 48 48" fill="none" xmlns="http://www.w3.org/2000/svg">
<path d="M12.9281 6.00075C10.3467 6.04591 8 8.14275 8 11.0332V36.0648C8 39.9187 12.1719 42.3463 15.5095 40.4193L37.2036 27.8774C40.5412 25.9505 40.5412 21.1475 37.2036 19.2206C36.5257 18.8292 16.1874 7.0701 15.5095 6.67869C14.6751 6.19696 13.7886 5.9857 12.9281 6.00075ZM12.9803 9.36438C13.2671 9.35937 13.5626 9.4124 13.8407 9.57298C14.5187 9.96439 34.8569 21.7235 35.5348 22.1149C36.6473 22.7572 36.6473 24.3408 35.5348 24.9831L13.8407 37.525C12.7282 38.1673 11.3376 37.3495 11.3376 36.0648V11.0332C11.3376 10.0697 12.1198 9.37943 12.9803 9.36438Z" fill="white"/>
</svg>
