<svg width="60" height="60" viewBox="0 0 60 60" fill="none" xmlns="http://www.w3.org/2000/svg">
<path d="M0 14C0 6.26801 6.26801 0 14 0H46C53.732 0 60 6.26801 60 14V46C60 53.732 53.732 60 46 60H14C6.26801 60 0 53.732 0 46V14Z" fill="white"/>
<path d="M3 17C3 9.26802 9.26801 3 17 3H43C50.732 3 57 9.26801 57 17V43C57 50.732 50.732 57 43 57H17C9.26802 57 3 50.732 3 43V17Z" fill="#7FFFE0"/>
<path d="M40.3906 29.6553C40.3906 31.3415 40.1738 32.8651 39.7402 34.2261C39.3066 35.575 38.6984 36.7795 37.9155 37.8394C37.1447 38.8872 36.2233 39.7905 35.1514 40.5493C34.0794 41.3081 32.9051 41.9344 31.6284 42.4282C30.3517 42.91 28.9907 43.2713 27.5454 43.5122C26.1121 43.741 24.6367 43.8555 23.1191 43.8555C22.5531 43.8555 21.999 43.8434 21.457 43.8193C20.915 43.7832 20.361 43.735 19.7949 43.6748L20.3008 19.4297C21.6257 19.0081 22.9867 18.7131 24.3838 18.5444C25.793 18.3638 27.1901 18.2734 28.5752 18.2734C30.2975 18.2734 31.8813 18.5324 33.3267 19.0503C34.772 19.5682 36.0186 20.3149 37.0664 21.2905C38.1143 22.2661 38.9272 23.4585 39.5054 24.8677C40.0955 26.2769 40.3906 27.8727 40.3906 29.6553ZM32.9834 30.8115C32.9954 30.1611 32.9232 29.5348 32.7666 28.9326C32.6221 28.3304 32.3752 27.8005 32.0259 27.3428C31.6886 26.873 31.255 26.4997 30.7251 26.2227C30.1951 25.9336 29.5628 25.777 28.8281 25.7529L28.1055 36.9541C28.8281 36.8457 29.4845 36.6108 30.0747 36.2495C30.6649 35.8761 31.1707 35.4245 31.5923 34.8945C32.0259 34.3525 32.3571 33.7563 32.5859 33.106C32.8268 32.4435 32.9593 31.763 32.9834 31.0645V30.8115Z" fill="#531A82"/>
</svg>
