<svg width="40" height="40" viewBox="0 0 40 40" fill="none" xmlns="http://www.w3.org/2000/svg">
<g clip-path="url(#clip0_544_42)">
<path d="M0 9.33333C0 4.17867 4.17867 0 9.33333 0H30.6667C35.8213 0 40 4.17867 40 9.33333V30.6667C40 35.8213 35.8213 40 30.6667 40H9.33333C4.17867 40 0 35.8213 0 30.6667V9.33333Z" fill="white"/>
<path d="M2 11.3333C2 6.17868 6.17867 2 11.3333 2H28.6667C33.8213 2 38 6.17867 38 11.3333V28.6667C38 33.8213 33.8213 38 28.6667 38H11.3333C6.17868 38 2 33.8213 2 28.6667V11.3333Z" fill="#7FFFE0"/>
<path d="M26.9271 19.7703C26.9271 20.8944 26.7826 21.9102 26.4935 22.8175C26.2045 23.7168 25.799 24.5198 25.2771 25.2264C24.7632 25.9249 24.1489 26.5271 23.4343 27.033C22.7197 27.5388 21.9368 27.9564 21.0857 28.2856C20.2345 28.6068 19.3272 28.8476 18.3637 29.0082C17.4081 29.1608 16.4245 29.2371 15.4128 29.2371C15.0355 29.2371 14.6661 29.229 14.3047 29.213C13.9434 29.1889 13.5741 29.1568 13.1967 29.1166L13.5339 12.9532C14.4172 12.6722 15.3245 12.4755 16.2559 12.363C17.1954 12.2426 18.1268 12.1824 19.0502 12.1824C20.1984 12.1824 21.2543 12.355 22.2179 12.7003C23.1814 13.0456 24.0125 13.5434 24.711 14.1938C25.4096 14.8442 25.9515 15.6391 26.337 16.5786C26.7304 17.518 26.9271 18.5819 26.9271 19.7703ZM21.989 20.5411C21.997 20.1075 21.9489 19.69 21.8445 19.2885C21.7481 18.887 21.5835 18.5338 21.3507 18.2286C21.1258 17.9154 20.8367 17.6666 20.4835 17.4819C20.1301 17.2892 19.7086 17.1848 19.2188 17.1687L18.7371 24.6362C19.2188 24.5639 19.6564 24.4073 20.0499 24.1664C20.4433 23.9175 20.7805 23.6164 21.0616 23.2631C21.3507 22.9018 21.5715 22.5043 21.724 22.0708C21.8846 21.6291 21.9729 21.1754 21.989 20.7098V20.5411Z" fill="#531A82"/>
</g>
<defs>
<clipPath id="clip0_544_42">
<rect width="40" height="40" fill="white"/>
</clipPath>
</defs>
</svg>
