<svg width="136" height="60" viewBox="0 0 136 60" fill="none" xmlns="http://www.w3.org/2000/svg">
<path d="M0 14C0 6.26801 6.26801 0 14 0H122C129.732 0 136 6.26801 136 14V46C136 53.732 129.732 60 122 60H14C6.26801 60 0 53.732 0 46V14Z" fill="white"/>
<path d="M3 17C3 9.26802 9.26801 3 17 3H119C126.732 3 133 9.26801 133 17V43C133 50.732 126.732 57 119 57H17C9.26801 57 3 50.732 3 43V17Z" fill="#7FFFE0"/>
<path d="M35.4214 33.3887C35.4214 35.0387 35.1323 36.484 34.5542 37.7246C33.9881 38.9531 33.2052 39.9769 32.2056 40.7959C31.2179 41.6149 30.0557 42.2292 28.7188 42.6387C27.3939 43.0482 25.9666 43.2529 24.437 43.2529C23.8468 43.2529 23.1965 43.1746 22.4858 43.0181C21.7873 42.8615 21.0767 42.6688 20.354 42.4399C19.6313 42.1991 18.9328 41.9461 18.2583 41.6812C17.5959 41.4041 17.0057 41.1452 16.4878 40.9043L17.2827 33.4609C18.3065 34.0752 19.4386 34.5449 20.6792 34.8701C21.9318 35.1833 23.1603 35.3398 24.3647 35.3398C24.5936 35.3398 24.8706 35.3338 25.1958 35.3218C25.521 35.2977 25.8281 35.2435 26.1172 35.1592C26.4183 35.0628 26.6712 34.9243 26.876 34.7437C27.0807 34.563 27.1831 34.304 27.1831 33.9668C27.1831 33.738 27.1108 33.5452 26.9663 33.3887C26.8218 33.2201 26.6351 33.0876 26.4062 32.9912C26.1774 32.8828 25.9185 32.8045 25.6294 32.7563C25.3403 32.6961 25.0573 32.654 24.7803 32.6299C24.5033 32.6058 24.2443 32.5938 24.0034 32.5938C23.7625 32.5938 23.5698 32.5938 23.4253 32.5938C22.3895 32.5938 21.444 32.4131 20.5889 32.0518C19.7458 31.6904 19.0171 31.1906 18.4028 30.5522C17.8006 29.9019 17.3309 29.137 16.9937 28.2578C16.6564 27.3665 16.4878 26.403 16.4878 25.3672C16.4878 23.946 16.7708 22.6753 17.3369 21.5552C17.915 20.423 18.6799 19.4655 19.6313 18.6826C20.5949 17.8877 21.6969 17.2795 22.9375 16.8579C24.1781 16.4364 25.4608 16.2256 26.7856 16.2256C27.3758 16.2256 27.984 16.2497 28.6104 16.2979C29.2367 16.334 29.8569 16.4062 30.4712 16.5146C31.0975 16.623 31.7057 16.7616 32.2959 16.9302C32.8861 17.0988 33.4461 17.3096 33.9761 17.5625L33.2896 24.8975C32.4705 24.6204 31.6094 24.3916 30.7061 24.2109C29.8148 24.0182 28.9416 23.9219 28.0864 23.9219C27.9299 23.9219 27.7251 23.9279 27.4722 23.9399C27.2313 23.9399 26.9723 23.958 26.6953 23.9941C26.4303 24.0182 26.1593 24.0604 25.8823 24.1206C25.6053 24.1808 25.3584 24.2651 25.1416 24.3735C24.9248 24.4699 24.7502 24.6024 24.6177 24.771C24.4852 24.9396 24.425 25.1383 24.437 25.3672C24.4491 25.6322 24.5454 25.849 24.7261 26.0176C24.9188 26.1742 25.1597 26.3006 25.4487 26.397C25.7498 26.4813 26.075 26.5415 26.4243 26.5776C26.7856 26.6138 27.141 26.6379 27.4902 26.6499C27.8395 26.6499 28.1647 26.6499 28.4658 26.6499C28.7669 26.6379 29.0138 26.6439 29.2065 26.668C30.1701 26.7282 31.0373 26.9329 31.8081 27.2822C32.5789 27.6315 33.2293 28.0952 33.7593 28.6733C34.3013 29.2515 34.7108 29.944 34.9878 30.751C35.2769 31.5459 35.4214 32.4251 35.4214 33.3887Z" fill="#531A82"/>
<path d="M57.625 26.3428C57.625 27.5111 57.4504 28.5469 57.1011 29.4502C56.7518 30.3535 56.27 31.1484 55.6558 31.835C55.0535 32.5094 54.3429 33.0815 53.5239 33.5513C52.7049 34.009 51.8257 34.3883 50.8862 34.6895C49.9588 34.9785 48.9953 35.1953 47.9956 35.3398C46.9959 35.4723 46.0143 35.5446 45.0508 35.5566V43.2529H36.6318C36.6318 41.8799 36.6318 40.543 36.6318 39.2422C36.6439 37.9414 36.6499 36.6527 36.6499 35.376C36.6619 34.0872 36.668 32.7925 36.668 31.4917C36.68 30.1909 36.6921 28.848 36.7041 27.4629C36.7282 25.9935 36.7342 24.5241 36.7222 23.0547C36.7101 21.5853 36.7402 20.1038 36.8125 18.6104C38.3542 18.1527 39.8958 17.8094 41.4375 17.5806C42.9792 17.3517 44.569 17.2373 46.207 17.2373C47.1344 17.2373 48.0618 17.3156 48.9893 17.4722C49.9167 17.6167 50.8019 17.8516 51.645 18.1768C52.5002 18.502 53.2891 18.9115 54.0117 19.4053C54.7464 19.887 55.3787 20.4652 55.9087 21.1396C56.4386 21.8141 56.8542 22.585 57.1553 23.4521C57.4684 24.3193 57.625 25.2829 57.625 26.3428ZM49.6035 26.957C49.6035 26.1742 49.3626 25.5659 48.8809 25.1323C48.4111 24.6867 47.7969 24.4639 47.0381 24.4639C46.7852 24.4639 46.5202 24.488 46.2432 24.5361C45.9782 24.5723 45.7253 24.6204 45.4844 24.6807L45.2676 29.9561C45.4362 29.9801 45.5988 29.9922 45.7554 29.9922C45.9119 29.9922 46.0745 29.9922 46.2432 29.9922C46.6768 29.9922 47.0923 29.9199 47.4897 29.7754C47.8993 29.6309 48.2606 29.4261 48.5737 29.1611C48.8869 28.8841 49.1338 28.5649 49.3145 28.2036C49.5072 27.8302 49.6035 27.4147 49.6035 26.957Z" fill="#531A82"/>
<path d="M79.7744 41.4463L70.8135 42.6025L69.7295 38.5195H65.6104L64.707 42.6025L55.4932 41.6992L62.6836 17.6348L72.7285 17.1289L79.7744 41.4463ZM69.0791 32.9912L67.7061 26.7041L66.3691 32.9912H69.0791Z" fill="#531A82"/>
<path d="M96.9194 18.3213L96.269 25.9453C95.9198 25.849 95.5765 25.7827 95.2393 25.7466C94.902 25.7104 94.5588 25.6924 94.2095 25.6924C93.3543 25.6924 92.5353 25.8008 91.7524 26.0176C90.9816 26.2344 90.2951 26.5656 89.6929 27.0112C89.1027 27.4569 88.627 28.0229 88.2656 28.7095C87.9163 29.384 87.7417 30.1849 87.7417 31.1123C87.7417 31.7868 87.8381 32.377 88.0308 32.8828C88.2355 33.3766 88.5186 33.7922 88.8799 34.1294C89.2533 34.4546 89.6989 34.7015 90.2168 34.8701C90.7467 35.0387 91.3309 35.123 91.9692 35.123C92.4149 35.123 92.8726 35.0809 93.3423 34.9966C93.812 34.9002 94.2817 34.7738 94.7515 34.6172C95.2212 34.4606 95.6729 34.2799 96.1064 34.0752C96.54 33.8704 96.9435 33.6536 97.3169 33.4248L97.0278 41.916C96.5581 42.1569 96.0522 42.3737 95.5103 42.5664C94.9683 42.7471 94.4082 42.9036 93.8301 43.0361C93.264 43.1807 92.6919 43.2891 92.1138 43.3613C91.5477 43.4336 91.0057 43.4697 90.4878 43.4697C88.7775 43.4697 87.2178 43.1506 85.8086 42.5122C84.4115 41.8739 83.207 41.0067 82.1953 39.9106C81.1956 38.8026 80.4188 37.5199 79.8647 36.0625C79.3107 34.6051 79.0337 33.0514 79.0337 31.4014C79.0337 29.4261 79.3107 27.5833 79.8647 25.873C80.4308 24.1628 81.2559 22.6813 82.3398 21.4287C83.4359 20.1641 84.7848 19.1764 86.3867 18.4658C88.0007 17.7432 89.8494 17.3818 91.9331 17.3818C92.7642 17.3818 93.6073 17.4481 94.4624 17.5806C95.3175 17.7131 96.1366 17.96 96.9194 18.3213Z" fill="#531A82"/>
<path d="M118.816 28.4023C118.816 29.4502 118.744 30.498 118.599 31.5459C116.54 31.6784 114.492 31.8952 112.457 32.1963C110.421 32.4854 108.386 32.7744 106.35 33.0635C106.663 33.9307 107.151 34.6232 107.813 35.1411C108.488 35.659 109.289 35.918 110.216 35.918C110.698 35.918 111.222 35.8276 111.788 35.647C112.366 35.4663 112.938 35.2435 113.504 34.9785C114.07 34.7015 114.612 34.4064 115.13 34.0933C115.648 33.7801 116.094 33.4971 116.467 33.2441L115.6 41.4463C115.13 41.8076 114.618 42.1147 114.064 42.3677C113.522 42.6206 112.956 42.8254 112.366 42.9819C111.776 43.1385 111.18 43.2529 110.578 43.3252C109.975 43.3975 109.385 43.4336 108.807 43.4336C107.615 43.4336 106.525 43.271 105.537 42.9458C104.549 42.6206 103.652 42.1689 102.845 41.5908C102.05 41.0007 101.352 40.3081 100.75 39.5132C100.147 38.7183 99.6475 37.8511 99.25 36.9116C98.8525 35.9722 98.5514 34.9785 98.3467 33.9307C98.1419 32.8828 98.0396 31.8229 98.0396 30.751C98.0396 29.6309 98.1419 28.5107 98.3467 27.3906C98.5514 26.2705 98.8586 25.1925 99.2681 24.1567C99.6896 23.1209 100.214 22.1634 100.84 21.2842C101.478 20.3929 102.219 19.616 103.062 18.9536C103.905 18.2912 104.857 17.7733 105.917 17.3999C106.988 17.0265 108.169 16.8398 109.458 16.8398C110.529 16.8398 111.505 16.9904 112.384 17.2915C113.276 17.5806 114.064 17.9901 114.751 18.52C115.45 19.0379 116.052 19.6582 116.558 20.3809C117.076 21.1035 117.497 21.8984 117.822 22.7656C118.16 23.6208 118.406 24.5301 118.563 25.4937C118.732 26.4451 118.816 27.4147 118.816 28.4023ZM111.589 27.4629C111.589 27.1257 111.553 26.7824 111.481 26.4331C111.409 26.0718 111.288 25.7466 111.12 25.4575C110.963 25.1685 110.752 24.9336 110.487 24.7529C110.222 24.5602 109.891 24.4639 109.494 24.4639C109.012 24.4639 108.584 24.5964 108.211 24.8613C107.85 25.1143 107.536 25.4395 107.271 25.8369C107.007 26.2223 106.79 26.6439 106.621 27.1016C106.452 27.5592 106.326 27.9808 106.242 28.3662L111.589 27.8604V27.4629Z" fill="#531A82"/>
</svg>
