<svg width="48" height="48" viewBox="0 0 48 48" fill="none" xmlns="http://www.w3.org/2000/svg">
<path d="M34.3267 15.9396C33.7299 15.3925 32.785 15.4423 32.2379 16.0888C31.6909 16.6856 31.7406 17.6305 32.3871 18.1776C34.2273 19.7691 35.2717 22.1065 35.2717 24.5435C35.2717 26.9804 34.2273 29.2682 32.3871 30.9094C31.7903 31.4565 31.6909 32.4014 32.2379 32.9982C32.5363 33.3463 32.9342 33.4955 33.3321 33.4955C33.6802 33.4955 34.0283 33.3961 34.3267 33.0977C36.7637 30.9094 38.206 27.7762 38.206 24.5435C38.206 21.3108 36.8134 18.0781 34.3267 15.9396Z" fill="white"/>
<path d="M39.8473 12.4084C39.2505 11.8613 38.3056 11.911 37.7585 12.5079C37.2114 13.1047 37.2611 14.0496 37.8579 14.5967C40.643 17.1331 42.2345 20.7636 42.2345 24.4936C42.2345 28.2237 40.643 31.8542 37.8579 34.3906C37.2611 34.9377 37.2114 35.8826 37.7585 36.4794C38.0569 36.7778 38.4548 36.9768 38.8526 36.9768C39.2008 36.9768 39.5986 36.8276 39.8473 36.5789C43.2292 33.4954 45.1688 29.0691 45.1688 24.4936C45.1688 19.9182 43.2292 15.4919 39.8473 12.4084Z" fill="white"/>
<path d="M28.4085 7.3357C27.6128 6.8881 26.6679 6.8881 25.9218 7.3357L12.0462 15.492H5.97869C3.79041 15.492 2 17.2824 2 19.4707V29.5666C2 31.7549 3.79041 33.5453 5.97869 33.5453H12.0462L25.8721 41.6519C26.27 41.9005 26.7176 42 27.1155 42C27.5631 42 27.9609 41.9005 28.3588 41.6519C29.1545 41.2043 29.6021 40.3588 29.6021 39.5133V9.47424C29.6519 8.57904 29.1545 7.7833 28.4085 7.3357ZM4.98401 29.5169V19.4707C4.98401 18.9236 5.43162 18.476 5.97869 18.476H10.952V30.5613H5.97869C5.43162 30.5115 4.98401 30.1137 4.98401 29.5169ZM26.6679 38.6181L13.9858 31.1581V17.7798L26.6679 10.3197V38.6181Z" fill="white"/>
</svg>
