<svg width="48" height="48" viewBox="0 0 48 48" fill="none" xmlns="http://www.w3.org/2000/svg">
<path d="M42.5714 4H5.42857C5.04969 4 4.68633 4.15051 4.41842 4.41842C4.15051 4.68633 4 5.04969 4 5.42857V42.5714C4 42.9503 4.15051 43.3137 4.41842 43.5816C4.68633 43.8495 5.04969 44 5.42857 44H42.5714C42.9503 44 43.3137 43.8495 43.5816 43.5816C43.8495 43.3137 44 42.9503 44 42.5714V5.42857C44 5.04969 43.8495 4.68633 43.5816 4.41842C43.3137 4.15051 42.9503 4 42.5714 4ZM41.1429 41.1429H6.85714V6.85714H41.1429V41.1429Z" fill="white"/>
<path d="M26.8572 22.5715C27.2361 22.5714 27.5994 22.4209 27.8672 22.1529L35.4286 14.5915V16.8572C35.4286 17.2361 35.5792 17.5995 35.8471 17.8674C36.115 18.1353 36.4783 18.2858 36.8572 18.2858C37.2361 18.2858 37.5995 18.1353 37.8674 17.8674C38.1353 17.5995 38.2858 17.2361 38.2858 16.8572V11.1429C38.2858 10.764 38.1353 10.4007 37.8674 10.1328C37.5995 9.86487 37.2361 9.71436 36.8572 9.71436H31.1429C30.7641 9.71436 30.4007 9.86487 30.1328 10.1328C29.8649 10.4007 29.7144 10.764 29.7144 11.1429C29.7144 11.5218 29.8649 11.8852 30.1328 12.1531C30.4007 12.421 30.7641 12.5715 31.1429 12.5715H33.4087L25.8472 20.1329C25.6475 20.3327 25.5115 20.5872 25.4564 20.8643C25.4013 21.1414 25.4296 21.4286 25.5377 21.6896C25.6458 21.9506 25.8288 22.1737 26.0637 22.3306C26.2986 22.4876 26.5747 22.5714 26.8572 22.5715Z" fill="white"/>
<path d="M33.4086 35.4285H31.1429C30.764 35.4285 30.4007 35.579 30.1327 35.8469C29.8648 36.1148 29.7143 36.4782 29.7143 36.8571C29.7143 37.2359 29.8648 37.5993 30.1327 37.8672C30.4007 38.1351 30.764 38.2856 31.1429 38.2856H36.8572C37.2361 38.2856 37.5994 38.1351 37.8673 37.8672C38.1352 37.5993 38.2858 37.2359 38.2858 36.8571V31.1428C38.2858 30.7639 38.1352 30.4005 37.8673 30.1326C37.5994 29.8647 37.2361 29.7142 36.8572 29.7142C36.4783 29.7142 36.1149 29.8647 35.847 30.1326C35.5791 30.4005 35.4286 30.7639 35.4286 31.1428V33.4085L27.8672 25.8471C27.5978 25.5868 27.2369 25.4428 26.8623 25.4461C26.4878 25.4494 26.1295 25.5996 25.8646 25.8645C25.5997 26.1293 25.4495 26.4876 25.4462 26.8622C25.443 27.2368 25.587 27.5976 25.8472 27.8671L33.4086 35.4285Z" fill="white"/>
<path d="M10.5971 38.1756C10.7699 38.2481 10.9554 38.2854 11.1428 38.2856H16.8571C17.236 38.2856 17.5993 38.1351 17.8672 37.8672C18.1352 37.5993 18.2857 37.2359 18.2857 36.8571C18.2857 36.4782 18.1352 36.1148 17.8672 35.8469C17.5993 35.579 17.236 35.4285 16.8571 35.4285H14.5914L22.1528 27.8671C22.413 27.5976 22.557 27.2368 22.5538 26.8622C22.5505 26.4876 22.4003 26.1293 22.1354 25.8645C21.8705 25.5996 21.5122 25.4494 21.1377 25.4461C20.7631 25.4428 20.4022 25.5868 20.1328 25.8471L12.5714 33.4085V31.1428C12.5714 30.7639 12.4209 30.4005 12.153 30.1326C11.885 29.8647 11.5217 29.7142 11.1428 29.7142C10.7639 29.7142 10.4006 29.8647 10.1327 30.1326C9.86474 30.4005 9.71423 30.7639 9.71423 31.1428V36.8571C9.71456 37.1395 9.79861 37.4155 9.95575 37.6502C10.1129 37.8849 10.3361 38.0677 10.5971 38.1756Z" fill="white"/>
<path d="M11.1428 18.2858C11.5217 18.2858 11.885 18.1353 12.153 17.8674C12.4209 17.5995 12.5714 17.2361 12.5714 16.8572V14.5915L20.1328 22.1529C20.4022 22.4132 20.7631 22.5571 21.1377 22.5539C21.5122 22.5506 21.8705 22.4004 22.1354 22.1355C22.4003 21.8707 22.5505 21.5124 22.5538 21.1378C22.557 20.7632 22.413 20.4024 22.1528 20.1329L14.5914 12.5715H16.8571C17.236 12.5715 17.5993 12.421 17.8672 12.1531C18.1352 11.8852 18.2857 11.5218 18.2857 11.1429C18.2857 10.764 18.1352 10.4007 17.8672 10.1328C17.5993 9.86487 17.236 9.71436 16.8571 9.71436H11.1428C10.7639 9.71436 10.4006 9.86487 10.1327 10.1328C9.86474 10.4007 9.71423 10.764 9.71423 11.1429V16.8572C9.71423 17.2361 9.86474 17.5995 10.1327 17.8674C10.4006 18.1353 10.7639 18.2858 11.1428 18.2858Z" fill="white"/>
</svg>
