<svg width="48" height="48" viewBox="0 0 48 48" fill="none" xmlns="http://www.w3.org/2000/svg">
<path d="M15.394 6.6714C15.0779 6.03918 14.6827 5.40695 14.3666 4.85376C14.0505 4.30056 13.4973 4.06348 13.0231 4.06348C12.549 4.06348 11.9958 4.22153 11.6796 4.85376C9.22978 9.12128 6.77991 13.3888 4.25101 17.6563C3.9349 18.2885 3.53975 18.9208 3.22364 19.474C2.59142 20.5013 3.3817 21.8448 4.56712 21.8448C9.46686 21.8448 14.4456 21.8448 19.3454 21.8448C20.0566 21.8448 20.7679 21.8448 21.4791 21.8448C22.6646 21.8448 23.4548 20.5013 22.8226 19.474C20.2937 15.2064 17.8438 10.9389 15.394 6.6714ZM7.25408 18.6837C9.15075 15.3645 11.0474 12.0453 12.9441 8.80516C14.8408 12.1243 16.7374 15.4435 18.6341 18.6837C14.8408 18.6837 11.0474 18.6837 7.25408 18.6837Z" fill="white"/>
<path d="M20.2147 27.1396C16.0262 27.1396 11.8377 27.1396 7.57021 27.1396C6.93798 27.1396 6.38478 27.1396 5.75256 27.1396C4.88325 27.1396 4.172 27.8509 4.172 28.7202C4.172 32.9877 4.172 37.2552 4.172 41.5228C4.172 42.155 4.172 42.7082 4.172 43.3404C4.172 44.2097 4.88325 44.921 5.75256 44.921C9.94105 44.921 14.1295 44.921 18.3971 44.921C19.0293 44.921 19.5825 44.921 20.2147 44.921C21.084 44.921 21.7953 44.2097 21.7953 43.3404C21.7953 39.0729 21.7953 34.8054 21.7953 30.5379C21.7953 29.9056 21.7953 29.3524 21.7953 28.7202C21.7953 27.8509 21.005 27.1396 20.2147 27.1396ZM18.6341 41.5228C18.6341 41.6018 18.6341 41.6808 18.6341 41.7599C14.9198 41.7599 11.2845 41.7599 7.57021 41.7599C7.49118 41.7599 7.41215 41.7599 7.33312 41.7599C7.33312 38.0455 7.33312 34.2522 7.33312 30.5379C7.33312 30.4588 7.33312 30.3798 7.33312 30.3008C11.0474 30.3008 14.6827 30.3008 18.3971 30.3008C18.4761 30.3008 18.5551 30.3008 18.6341 30.3008C18.6341 34.0151 18.6341 37.8084 18.6341 41.5228Z" fill="white"/>
<path d="M35.9413 27.1396C31.0415 27.1396 27.0111 31.1701 27.0111 36.0698C27.0111 40.9696 31.0415 45 35.9413 45C40.841 45 44.8715 40.9696 44.8715 36.0698C44.8715 31.1701 40.841 27.1396 35.9413 27.1396ZM35.9413 41.7599C32.7802 41.7599 30.1722 39.1519 30.1722 35.9908C30.1722 32.8297 32.7802 30.2217 35.9413 30.2217C39.1024 30.2217 41.7103 32.8297 41.7103 35.9908C41.7103 39.1519 39.1024 41.7599 35.9413 41.7599Z" fill="white"/>
<path d="M38.2332 12.9145C39.7347 11.413 41.2362 9.99049 42.7378 8.48896C43.37 7.85673 44.0022 7.30354 44.5554 6.67131C45.9779 5.24881 43.7651 3.03602 42.3426 4.45852C40.2089 6.51326 38.0751 8.56799 35.9413 10.7017C34.4398 9.20021 32.9383 7.77771 31.4368 6.27617C30.8045 5.64395 30.1723 5.09075 29.6191 4.45852C28.1966 3.03602 25.9048 5.24881 27.4063 6.67131C29.5401 8.72604 31.6738 10.7808 33.7286 12.8355C32.227 14.337 30.7255 15.7595 29.224 17.2611C28.5917 17.8933 27.9595 18.4465 27.4063 19.0787C25.9838 20.5012 28.1966 22.714 29.6191 21.2915C31.7529 19.2368 33.8866 17.1821 36.0204 15.0483C37.5219 16.5498 39.0234 17.9723 40.525 19.4739C41.1572 20.1061 41.7894 20.6593 42.3426 21.2915C43.7651 22.714 46.0569 20.5012 44.5554 19.0787C42.4217 17.024 40.3669 14.9693 38.2332 12.9145Z" fill="white"/>
</svg>
