<svg width="48" height="48" viewBox="0 0 48 48" fill="none" xmlns="http://www.w3.org/2000/svg">
<path d="M42.5714 4H5.42857C5.04969 4 4.68633 4.15051 4.41842 4.41842C4.15051 4.68633 4 5.04969 4 5.42857V42.5714C4 42.9503 4.15051 43.3137 4.41842 43.5816C4.68633 43.8495 5.04969 44 5.42857 44H42.5714C42.9503 44 43.3137 43.8495 43.5816 43.5816C43.8495 43.3137 44 42.9503 44 42.5714V5.42857C44 5.04969 43.8495 4.68633 43.5816 4.41842C43.3137 4.15051 42.9503 4 42.5714 4ZM41.1429 41.1429H6.85714V6.85714H41.1429V41.1429Z" fill="white"/>
<path d="M36.8575 9.71439C36.4787 9.71447 36.1153 9.86503 35.8475 10.133L28.2861 17.6944L28.2861 15.4287C28.2861 15.0498 28.1356 14.6864 27.8677 14.4185C27.5997 14.1506 27.2364 14.0001 26.8575 14.0001C26.4786 14.0001 26.1153 14.1506 25.8473 14.4185C25.5794 14.6864 25.4289 15.0498 25.4289 15.4287L25.4289 21.143C25.4289 21.5218 25.5794 21.8852 25.8473 22.1531C26.1153 22.421 26.4786 22.5715 26.8575 22.5715L32.5718 22.5715C32.9507 22.5715 33.314 22.421 33.5819 22.1531C33.8498 21.8852 34.0004 21.5218 34.0004 21.143C34.0004 20.7641 33.8498 20.4007 33.5819 20.1328C33.314 19.8649 32.9507 19.7144 32.5718 19.7144L30.3061 19.7144L37.8675 12.153C38.0672 11.9532 38.2032 11.6987 38.2583 11.4216C38.3134 11.1445 38.2851 10.8573 38.177 10.5963C38.0689 10.3353 37.8859 10.1122 37.651 9.95525C37.4161 9.79827 37.14 9.71445 36.8575 9.71439Z" fill="white"/>
<path d="M30.3233 28.3032L32.589 28.3032C32.9679 28.3032 33.3313 28.1527 33.5992 27.8848C33.8671 27.6169 34.0176 27.2535 34.0176 26.8746C34.0176 26.4957 33.8671 26.1324 33.5992 25.8645C33.3313 25.5966 32.9679 25.4461 32.589 25.4461L26.8747 25.4461C26.4959 25.4461 26.1325 25.5966 25.8646 25.8645C25.5967 26.1324 25.4462 26.4957 25.4462 26.8746L25.4462 32.5889C25.4462 32.9678 25.5967 33.3312 25.8646 33.5991C26.1325 33.867 26.4959 34.0175 26.8747 34.0175C27.2536 34.0175 27.617 33.867 27.8849 33.5991C28.1528 33.3312 28.3033 32.9678 28.3033 32.5889L28.3033 30.3232L35.8647 37.8846C36.1342 38.1449 36.495 38.2888 36.8696 38.2856C37.2442 38.2823 37.6025 38.1321 37.8673 37.8672C38.1322 37.6024 38.2825 37.2441 38.2857 36.8695C38.289 36.4949 38.145 36.1341 37.8847 35.8646L30.3233 28.3032Z" fill="white"/>
<path d="M21.671 25.5561C21.4981 25.4836 21.3127 25.4462 21.1253 25.4461L15.411 25.4461C15.0321 25.4461 14.6687 25.5966 14.4008 25.8645C14.1329 26.1324 13.9824 26.4957 13.9824 26.8746C13.9824 27.2535 14.1329 27.6169 14.4008 27.8848C14.6687 28.1527 15.0321 28.3032 15.411 28.3032L17.6767 28.3032L10.1153 35.8646C9.85504 36.1341 9.71105 36.4949 9.7143 36.8695C9.71755 37.2441 9.8678 37.6024 10.1327 37.8672C10.3975 38.1321 10.7558 38.2823 11.1304 38.2856C11.505 38.2888 11.8658 38.1449 12.1353 37.8846L19.6967 30.3232L19.6967 32.5889C19.6967 32.9678 19.8472 33.3312 20.1151 33.5991C20.383 33.867 20.7464 34.0175 21.1253 34.0175C21.5041 34.0175 21.8675 33.867 22.1354 33.5991C22.4033 33.3312 22.5538 32.9678 22.5538 32.5889L22.5538 26.8746C22.5535 26.5922 22.4695 26.3162 22.3123 26.0815C22.1552 25.8468 21.932 25.6639 21.671 25.5561Z" fill="white"/>
<path d="M21.1253 13.9825C20.7464 13.9825 20.383 14.133 20.1151 14.4009C19.8472 14.6689 19.6967 15.0322 19.6967 15.4111L19.6967 17.6768L12.1353 10.1154C11.8658 9.85516 11.505 9.71117 11.1304 9.71442C10.7558 9.71768 10.3975 9.86792 10.1327 10.1328C9.8678 10.3977 9.71756 10.756 9.7143 11.1305C9.71105 11.5051 9.85504 11.866 10.1153 12.1354L17.6767 19.6968L15.411 19.6968C15.0321 19.6968 14.6687 19.8473 14.4008 20.1152C14.1329 20.3831 13.9824 20.7465 13.9824 21.1254C13.9824 21.5043 14.1329 21.8676 14.4008 22.1355C14.6687 22.4034 15.0321 22.554 15.411 22.554L21.1253 22.554C21.5041 22.554 21.8675 22.4034 22.1354 22.1355C22.4033 21.8676 22.5538 21.5043 22.5538 21.1254L22.5538 15.4111C22.5538 15.0322 22.4033 14.6689 22.1354 14.4009C21.8675 14.133 21.5041 13.9825 21.1253 13.9825Z" fill="white"/>
</svg>
