<svg width="48" height="48" viewBox="0 0 48 48" fill="none" xmlns="http://www.w3.org/2000/svg">
<path d="M18.1713 5H14.8423C12.1721 5 10 7.17104 10 9.83995V39.16C10 41.829 12.1721 44 14.8423 44H18.1713C20.8415 44 23.0136 41.829 23.0136 39.16V9.83995C23.0136 7.17104 20.8415 5 18.1713 5ZM19.7854 39.16C19.7854 40.0503 19.062 40.7734 18.1713 40.7734H14.8423C13.9516 40.7734 13.2282 40.0503 13.2282 39.16V9.83995C13.2282 8.94972 13.9516 8.22663 14.8423 8.22663H18.1713C19.062 8.22663 19.7854 8.94972 19.7854 9.83995V39.16ZM34.1577 5H30.8287C28.1585 5 25.9864 7.17104 25.9864 9.83995V39.16C25.9864 41.829 28.1585 44 30.8287 44H34.1577C36.8279 44 39 41.829 39 39.16V9.83995C39 7.17104 36.8279 5 34.1577 5ZM35.7718 39.16C35.7718 40.0503 35.0484 40.7734 34.1577 40.7734H30.8287C29.938 40.7734 29.2146 40.0503 29.2146 39.16V9.83995C29.2146 8.94972 29.938 8.22663 30.8287 8.22663H34.1577C35.0484 8.22663 35.7718 8.94972 35.7718 9.83995V39.16Z" fill="white"/>
</svg>
