<svg width="91" height="40" viewBox="0 0 91 40" fill="none" xmlns="http://www.w3.org/2000/svg">
<path d="M0 9.33333C0 4.17868 4.17868 0 9.33333 0H81.3333C86.488 0 90.6667 4.17868 90.6667 9.33333V30.6667C90.6667 35.8213 86.488 40 81.3333 40H9.33333C4.17867 40 0 35.8213 0 30.6667V9.33333Z" fill="white"/>
<path d="M2 11.3333C2 6.17868 6.17868 2 11.3333 2H79.3333C84.488 2 88.6667 6.17868 88.6667 11.3333V28.6667C88.6667 33.8213 84.488 38 79.3333 38H11.3333C6.17868 38 2 33.8213 2 28.6667V11.3333Z" fill="#7FFFE0"/>
<path d="M23.6143 22.2591C23.6143 23.3592 23.4215 24.3227 23.0361 25.1497C22.6587 25.9688 22.1368 26.6513 21.4704 27.1973C20.812 27.7433 20.0371 28.1528 19.1458 28.4258C18.2626 28.6988 17.3111 28.8353 16.2913 28.8353C15.8979 28.8353 15.4643 28.7831 14.9906 28.6787C14.5248 28.5743 14.0511 28.4459 13.5693 28.2933C13.0876 28.1327 12.6219 27.9641 12.1722 27.7874C11.7306 27.6028 11.3371 27.4301 10.9919 27.2695L11.5218 22.3073C12.2043 22.7168 12.9591 23.0299 13.7861 23.2467C14.6212 23.4555 15.4402 23.5599 16.2432 23.5599C16.3957 23.5599 16.5804 23.5559 16.7972 23.5479C17.014 23.5318 17.2187 23.4957 17.4115 23.4395C17.6122 23.3752 17.7808 23.2829 17.9173 23.1624C18.0538 23.042 18.1221 22.8694 18.1221 22.6445C18.1221 22.492 18.0739 22.3635 17.9775 22.2591C17.8812 22.1467 17.7567 22.0584 17.6042 21.9941C17.4516 21.9219 17.279 21.8697 17.0863 21.8376C16.8936 21.7974 16.7049 21.7693 16.5202 21.7533C16.3355 21.7372 16.1629 21.7292 16.0023 21.7292C15.8417 21.7292 15.7132 21.7292 15.6169 21.7292C14.9263 21.7292 14.296 21.6087 13.7259 21.3678C13.1638 21.127 12.6781 20.7937 12.2686 20.3682C11.8671 19.9346 11.5539 19.4247 11.3291 18.8385C11.1043 18.2444 10.9919 17.602 10.9919 16.9115C10.9919 15.964 11.1806 15.1169 11.5579 14.3701C11.9434 13.6153 12.4532 12.977 13.0876 12.4551C13.7299 11.9251 14.4646 11.5196 15.2917 11.2386C16.1187 10.9576 16.9738 10.8171 17.8571 10.8171C18.2505 10.8171 18.656 10.8331 19.0736 10.8652C19.4911 10.8893 19.9046 10.9375 20.3141 11.0098C20.7317 11.082 21.1372 11.1744 21.5306 11.2868C21.924 11.3992 22.2974 11.5397 22.6507 11.7083L22.193 16.5983C21.647 16.4136 21.0729 16.2611 20.4707 16.1406C19.8765 16.0122 19.2944 15.9479 18.7243 15.9479C18.6199 15.9479 18.4834 15.9519 18.3148 15.96C18.1542 15.96 17.9816 15.972 17.7969 15.9961C17.6202 16.0122 17.4396 16.0403 17.2549 16.0804C17.0702 16.1206 16.9056 16.1768 16.7611 16.249C16.6165 16.3133 16.5001 16.4016 16.4118 16.514C16.3235 16.6264 16.2833 16.7589 16.2913 16.9115C16.2994 17.0881 16.3636 17.2326 16.484 17.3451C16.6125 17.4494 16.7731 17.5337 16.9658 17.598C17.1666 17.6542 17.3834 17.6943 17.6162 17.7184C17.8571 17.7425 18.094 17.7586 18.3268 17.7666C18.5597 17.7666 18.7765 17.7666 18.9772 17.7666C19.178 17.7586 19.3426 17.7626 19.471 17.7786C20.1134 17.8188 20.6915 17.9553 21.2054 18.1882C21.7193 18.421 22.1529 18.7301 22.5062 19.1156C22.8675 19.501 23.1405 19.9627 23.3252 20.5007C23.5179 21.0306 23.6143 21.6168 23.6143 22.2591Z" fill="#531A82"/>
<path d="M38.4167 17.5618C38.4167 18.3407 38.3002 19.0313 38.0674 19.6335C37.8345 20.2357 37.5133 20.7656 37.1038 21.2233C36.7024 21.673 36.2286 22.0544 35.6826 22.3675C35.1366 22.6726 34.5505 22.9256 33.9242 23.1263C33.3059 23.319 32.6635 23.4635 31.9971 23.5599C31.3306 23.6482 30.6762 23.6964 30.0339 23.7044V28.8353H24.4212C24.4212 27.9199 24.4212 27.0286 24.4212 26.1615C24.4293 25.2943 24.4333 24.4351 24.4333 23.584C24.4413 22.7248 24.4453 21.8617 24.4453 20.9945C24.4533 20.1273 24.4614 19.232 24.4694 18.3086C24.4855 17.329 24.4895 16.3494 24.4814 15.3698C24.4734 14.3902 24.4935 13.4026 24.5417 12.4069C25.5694 12.1018 26.5972 11.8729 27.625 11.7204C28.6528 11.5678 29.7127 11.4915 30.8047 11.4915C31.423 11.4915 32.0412 11.5437 32.6595 11.6481C33.2778 11.7445 33.8679 11.901 34.43 12.1178C35.0001 12.3346 35.526 12.6076 36.0078 12.9368C36.4976 13.258 36.9192 13.6434 37.2725 14.0931C37.6258 14.5428 37.9028 15.0566 38.1035 15.6348C38.3123 16.2129 38.4167 16.8553 38.4167 17.5618ZM33.069 17.9714C33.069 17.4494 32.9084 17.0439 32.5872 16.7549C32.2741 16.4578 31.8646 16.3092 31.3587 16.3092C31.1901 16.3092 31.0135 16.3253 30.8288 16.3574C30.6521 16.3815 30.4835 16.4136 30.3229 16.4538L30.1784 19.9707C30.2908 19.9868 30.3992 19.9948 30.5036 19.9948C30.608 19.9948 30.7164 19.9948 30.8288 19.9948C31.1178 19.9948 31.3949 19.9466 31.6598 19.8503C31.9328 19.7539 32.1737 19.6174 32.3825 19.4408C32.5913 19.2561 32.7559 19.0433 32.8763 18.8024C33.0048 18.5535 33.069 18.2765 33.069 17.9714Z" fill="#531A82"/>
<path d="M53.1829 27.6309L47.209 28.4017L46.4863 25.6797H43.7402L43.138 28.4017L36.9954 27.7995L41.7891 11.7565L48.4857 11.4193L53.1829 27.6309ZM46.0527 21.9941L45.1374 17.8027L44.2461 21.9941H46.0527Z" fill="#531A82"/>
<path d="M64.613 12.2142L64.1794 17.2969C63.9465 17.2326 63.7177 17.1885 63.4928 17.1644C63.268 17.1403 63.0392 17.1283 62.8063 17.1283C62.2362 17.1283 61.6902 17.2005 61.1683 17.3451C60.6544 17.4896 60.1967 17.7104 59.7952 18.0075C59.4018 18.3046 59.0846 18.682 58.8437 19.1396C58.6109 19.5893 58.4945 20.1233 58.4945 20.7415C58.4945 21.1912 58.5587 21.5846 58.6872 21.9219C58.8237 22.2511 59.0124 22.5281 59.2533 22.7529C59.5022 22.9697 59.7993 23.1343 60.1445 23.2467C60.4978 23.3592 60.8873 23.4154 61.3128 23.4154C61.6099 23.4154 61.915 23.3873 62.2282 23.3311C62.5413 23.2668 62.8545 23.1825 63.1676 23.0781C63.4808 22.9737 63.7819 22.8533 64.071 22.7168C64.36 22.5803 64.629 22.4358 64.8779 22.2832L64.6852 27.944C64.3721 28.1046 64.0348 28.2491 63.6735 28.3776C63.3122 28.498 62.9388 28.6024 62.5534 28.6908C62.176 28.7871 61.7946 28.8594 61.4092 28.9076C61.0318 28.9557 60.6705 28.9798 60.3252 28.9798C59.185 28.9798 58.1452 28.767 57.2057 28.3415C56.2743 27.9159 55.4714 27.3378 54.7969 26.6071C54.1304 25.8684 53.6125 25.0132 53.2432 24.0417C52.8738 23.0701 52.6891 22.0343 52.6891 20.9342C52.6891 19.6174 52.8738 18.3889 53.2432 17.2487C53.6205 16.1085 54.1706 15.1209 54.8932 14.2858C55.6239 13.4427 56.5232 12.7843 57.5911 12.3105C58.6671 11.8288 59.8996 11.5879 61.2887 11.5879C61.8428 11.5879 62.4048 11.6321 62.9749 11.7204C63.545 11.8087 64.091 11.9733 64.613 12.2142Z" fill="#531A82"/>
<path d="M79.2106 18.9349C79.2106 19.6335 79.1624 20.332 79.0661 21.0306C77.693 21.1189 76.328 21.2635 74.971 21.4642C73.614 21.6569 72.2571 21.8496 70.9001 22.0423C71.1088 22.6204 71.434 23.0821 71.8756 23.4274C72.3253 23.7727 72.8593 23.9453 73.4775 23.9453C73.7987 23.9453 74.148 23.8851 74.5254 23.7646C74.9108 23.6442 75.2922 23.4957 75.6696 23.319C76.047 23.1343 76.4083 22.9376 76.7536 22.7288C77.0988 22.5201 77.3959 22.3314 77.6449 22.1628L77.0667 27.6309C76.7536 27.8717 76.4123 28.0765 76.043 28.2451C75.6816 28.4137 75.3043 28.5502 74.9108 28.6546C74.5174 28.759 74.1199 28.8353 73.7184 28.8835C73.3169 28.9316 72.9235 28.9557 72.5381 28.9557C71.7432 28.9557 71.0165 28.8473 70.3581 28.6305C69.6997 28.4137 69.1014 28.1126 68.5635 27.7272C68.0335 27.3338 67.5678 26.8721 67.1663 26.3421C66.7649 25.8122 66.4316 25.2341 66.1667 24.6077C65.9017 23.9814 65.7009 23.319 65.5644 22.6204C65.4279 21.9219 65.3597 21.2153 65.3597 20.5007C65.3597 19.7539 65.4279 19.0072 65.5644 18.2604C65.7009 17.5137 65.9057 16.795 66.1787 16.1045C66.4597 15.414 66.809 14.7756 67.2266 14.1895C67.6521 13.5953 68.1459 13.0774 68.708 12.6357C69.2701 12.1941 69.9044 11.8489 70.611 11.5999C71.3256 11.351 72.1125 11.2266 72.9717 11.2266C73.6863 11.2266 74.3367 11.3269 74.9228 11.5277C75.517 11.7204 76.043 11.9934 76.5006 12.3467C76.9664 12.6919 77.3678 13.1055 77.7051 13.5872C78.0503 14.069 78.3314 14.599 78.5482 15.1771C78.773 15.7472 78.9376 16.3534 79.042 16.9958C79.1544 17.6301 79.2106 18.2765 79.2106 18.9349ZM74.3929 18.3086C74.3929 18.0838 74.3688 17.8549 74.3206 17.6221C74.2725 17.3812 74.1922 17.1644 74.0798 16.9717C73.9754 16.779 73.8348 16.6224 73.6582 16.502C73.4815 16.3735 73.2607 16.3092 72.9958 16.3092C72.6746 16.3092 72.3895 16.3976 72.1406 16.5742C71.8997 16.7428 71.691 16.9596 71.5143 17.2246C71.3377 17.4816 71.1931 17.7626 71.0807 18.0677C70.9683 18.3728 70.884 18.6539 70.8278 18.9108L74.3929 18.5736V18.3086Z" fill="#531A82"/>
</svg>
